<?xml version="1.0" encoding="utf-8"?>
<!-- Generator: Adobe Illustrator 17.0.0, SVG Export Plug-In . SVG Version: 6.00 Build 0)  -->
<!DOCTYPE svg PUBLIC "-//W3C//DTD SVG 1.1//EN" "http://www.w3.org/Graphics/SVG/1.1/DTD/svg11.dtd">
<svg version="1.1" id="Layer_1" xmlns="http://www.w3.org/2000/svg" xmlns:xlink="http://www.w3.org/1999/xlink" x="0px" y="0px"
	 width="100px" height="100px" viewBox="0 0 100 100" enable-background="new 0 0 100 100" xml:space="preserve">
<g transform="translate(0.000000,100.000000) scale(0.100000,-0.100000)">
	<path fill="#48BEBC" d="M812,980c-38-24-56-62-48-108l5-33l-30,25c-71,60-189,40-289-50l-39-35l-94,55c-52,31-102,56-111,56
		c-34,0-14-30,42-61c31-18,74-43,95-56l37-23l-20-40c-40-78-18-143,70-207c25-18,56-41,70-51l24-20l-42-53c-23-30-52-66-64-81
		l-23-27l-170,94c-93,52-176,95-182,95c-7,0-13-8-13-17C31,421,778,12,833,3c44-7,104,13,118,39c18,33-4,45-37,19
		c-44-35-78-27-229,55c-77,41-143,78-147,82s29,49,72,101c98,116,112,167,61,225c-9,10-11,17-6,15c6-3,42-20,80-38
		c88-41,126-48,144-27c23,27-2,62-80,112c-54,35-69,50-64,62c22,54,36,120,33,149l-4,33l24-23c35-33,112-31,147,4
		c30,29,41,82,26,121c-12,33-65,68-101,68C856,1000,830,991,812,980z M919,934c12-15,21-34,21-44c0-29-39-70-68-70
		c-33,0-72,37-72,69c0,13,10,35,22,48C851,968,893,967,919,934z M716,829c30-28,30-55,0-142c-27-79-27-78,58-126c52-30,88-61,70-61
		c-5,0-47,19-94,43l-85,42l-3,50c-4,62-14,73-45,52c-23-15-27-14-93,25c-38,23-71,43-74,45c-8,8,52,53,105,79
		C617,867,679,864,716,829z M486,689c63-36,69-43,49-59c-25-21-17-36,40-75c109-75,110-104,12-222c-97-117-99-118-127-95l-23,19
		l62,77c33,42,61,84,61,92c0,30-20,52-85,94c-66,43-95,80-95,120c0,27,27,80,42,80C428,720,457,706,486,689z"/>
</g>
</svg>
