<?xml version="1.0" encoding="utf-8"?>
<!-- Generator: Adobe Illustrator 17.0.0, SVG Export Plug-In . SVG Version: 6.00 Build 0)  -->
<!DOCTYPE svg PUBLIC "-//W3C//DTD SVG 1.1//EN" "http://www.w3.org/Graphics/SVG/1.1/DTD/svg11.dtd">
<svg version="1.1" id="Layer_1" xmlns="http://www.w3.org/2000/svg" xmlns:xlink="http://www.w3.org/1999/xlink" x="0px" y="0px"
	 width="100px" height="100px" viewBox="0 0 100 100" enable-background="new 0 0 100 100" xml:space="preserve">
<g transform="translate(0.000000,100.000000) scale(0.100000,-0.100000)">
	<path fill="#48BEBC" d="M446,690c-83-26-135-92-143-177c-6-73,23-134,86-178c37-26,51-30,110-30c56,0,74,4,108,27
		c129,85,119,273-19,344C552,695,483,702,446,690z M593,627c73-55,86-152,32-223c-65-86-185-85-251,2c-24,31-29,47-29,94
		c0,46,5,63,27,92C427,664,524,680,593,627z"/>
</g>
<path fill="#48BEBC" d="M97.66,51.349c0,0.77-0.625,1.395-1.395,1.395H73.616c-0.77,0-1.395-0.625-1.395-1.395l0,0
	c0-0.77,0.625-1.395,1.395-1.395h22.649C97.036,49.954,97.66,50.578,97.66,51.349L97.66,51.349z"/>
<path fill="#48BEBC" d="M26.588,51.349c0,0.77-0.625,1.395-1.395,1.395H2.544c-0.77,0-1.395-0.625-1.395-1.395l0,0
	c0-0.77,0.625-1.395,1.395-1.395h22.649C25.963,49.954,26.588,50.578,26.588,51.349L26.588,51.349z"/>
<path fill="#48BEBC" d="M80.568,88.694c-0.596,0.488-1.475,0.4-1.963-0.196L64.261,70.97c-0.488-0.596-0.4-1.475,0.196-1.963l0,0
	c0.596-0.488,1.475-0.4,1.963,0.196l14.344,17.528C81.252,87.327,81.164,88.206,80.568,88.694L80.568,88.694z"/>
<path fill="#48BEBC" d="M34.558,32.691c-0.596,0.488-1.475,0.4-1.963-0.196L18.251,14.966c-0.488-0.596-0.4-1.475,0.196-1.963l0,0
	c0.596-0.488,1.475-0.4,1.963,0.196l14.344,17.528C35.242,31.324,35.154,32.203,34.558,32.691L34.558,32.691z"/>
<path fill="#48BEBC" d="M80.56,12.654c-0.596-0.488-1.475-0.4-1.963,0.196L64.254,30.379c-0.488,0.596-0.4,1.475,0.196,1.963l0,0
	c0.596,0.488,1.475,0.4,1.963-0.196l14.344-17.528C81.245,14.021,81.157,13.142,80.56,12.654L80.56,12.654z"/>
<path fill="#48BEBC" d="M34.55,68.658c-0.596-0.488-1.475-0.4-1.963,0.196L18.243,86.382c-0.488,0.596-0.4,1.475,0.196,1.963l0,0
	c0.596,0.488,1.475,0.4,1.963-0.196l14.344-17.528C35.234,70.025,35.146,69.146,34.55,68.658L34.55,68.658z"/>
<path fill="#48BEBC" d="M50.007,98.051c-0.77,0-1.395-0.625-1.395-1.395V74.007c0-0.77,0.625-1.395,1.395-1.395l0,0
	c0.77,0,1.395,0.625,1.395,1.395v22.649C51.402,97.426,50.778,98.051,50.007,98.051L50.007,98.051z"/>
<path fill="#48BEBC" d="M50,28.222c-0.77,0-1.395-0.625-1.395-1.395V4.178c0-0.77,0.625-1.395,1.395-1.395l0,0
	c0.77,0,1.395,0.625,1.395,1.395v22.649C51.395,27.598,50.77,28.222,50,28.222L50,28.222z"/>
</svg>
